HIERARCHY
ROOT Hips
{
	OFFSET -3.958830 18.904000 13.208200
	CHANNELS 6 Xposition Yposition Zposition Zrotation Yrotation Xrotation 
	JOINT LHipJoint
	{
		OFFSET 0.000000 0.000000 0.000000
		CHANNELS 3 Zrotation Yrotation Xrotation
		JOINT LeftUpLeg
		{
			OFFSET 1.800000 -1.400000 0.085000
			CHANNELS 3 Zrotation Yrotation Xrotation
			JOINT LeftLeg
			{
				OFFSET 2.215000 -6.000000 0.000000
				CHANNELS 3 Zrotation Yrotation Xrotation
				JOINT LeftFoot
				{
					OFFSET 2.500000 -6.900000 0.000000
					CHANNELS 3 Zrotation Yrotation Xrotation
					JOINT LeftToeBase
					{
						OFFSET 0.200000 -0.500000 1.950000
						CHANNELS 3 Zrotation Yrotation Xrotation
						End Site
						{
							OFFSET 0.000000 0.000000 0.000000
						}
					}
				}
			}
		}
	}
	JOINT RHipJoint
	{
		OFFSET 0.000000 0.000000 0.000000
		CHANNELS 3 Zrotation Yrotation Xrotation
		JOINT RightUpLeg
		{
			OFFSET -1.800000 -1.400000 0.085000
			CHANNELS 3 Zrotation Yrotation Xrotation
			JOINT RightLeg
			{
				OFFSET -2.215000 -6.000000 0.000000
				CHANNELS 3 Zrotation Yrotation Xrotation
				JOINT RightFoot
				{
					OFFSET -2.500000 -6.900000 0.000000
					CHANNELS 3 Zrotation Yrotation Xrotation
					JOINT RightToeBase
					{
						OFFSET -0.200000 -0.500000 1.950000
						CHANNELS 3 Zrotation Yrotation Xrotation
						End Site
						{
							OFFSET 0.000000 0.000000 0.000000
						}
					}
				}
			}
		}
	}
	JOINT LowerBack
	{
		OFFSET 0.000000 0.000000 0.000000
		CHANNELS 3 Zrotation Yrotation Xrotation
		JOINT Spine
		{
			OFFSET -0.087000 1.940000 -0.288900
			CHANNELS 3 Zrotation Yrotation Xrotation
			JOINT Spine1
			{
				OFFSET 0.000000 1.950000 0.060000
				CHANNELS 3 Zrotation Yrotation Xrotation
				JOINT Neck
				{
					OFFSET 0.000000 0.000000 0.000000
					CHANNELS 3 Zrotation Yrotation Xrotation
					JOINT Neck1
					{
						OFFSET 0.000000 1.600000 0.340000
						CHANNELS 3 Zrotation Yrotation Xrotation
						JOINT Head
						{
							OFFSET 0.000000 1.667000 -0.240000
							CHANNELS 3 Zrotation Yrotation Xrotation
							End Site
							{
								OFFSET 0.000000 0.000000 0.000000
							}
						}
					}
				}
				JOINT LeftShoulder
				{
					OFFSET 0.000000 0.000000 0.000000
					CHANNELS 3 Zrotation Yrotation Xrotation
					JOINT LeftArm
					{
						OFFSET 2.700000 1.550000 -0.730000
						CHANNELS 3 Zrotation Yrotation Xrotation
						JOINT LeftForeArm
						{
							OFFSET 5.450000 0.000000 0.000000
							CHANNELS 3 Zrotation Yrotation Xrotation
							JOINT LeftHand
							{
								OFFSET 3.450000 0.000000 0.000000
								CHANNELS 3 Zrotation Yrotation Xrotation
								JOINT LeftHandIndex1
								{
									OFFSET 0.750000 0.000000 0.000000
									CHANNELS 3 Zrotation Yrotation Xrotation
									End Site
									{
										OFFSET 0.000000 0.000000 0.000000
									}
								}
							}
						}
					}
				}
				JOINT RightShoulder
				{
					OFFSET 0.000000 0.000000 0.000000
					CHANNELS 3 Zrotation Yrotation Xrotation
					JOINT RightArm
					{
						OFFSET -2.700000 1.550000 -0.730000
						CHANNELS 3 Zrotation Yrotation Xrotation
						JOINT RightForeArm
						{
							OFFSET -5.450000 0.000000 0.000000
							CHANNELS 3 Zrotation Yrotation Xrotation
							JOINT RightHand
							{
								OFFSET -3.450000 0.000000 0.000000
								CHANNELS 3 Zrotation Yrotation Xrotation
								JOINT RightHandIndex1
								{
									OFFSET -0.750000 0.000000 0.000000
									CHANNELS 3 Zrotation Yrotation Xrotation
									End Site
									{
										OFFSET 0.000000 0.000000 0.000000
									}
								}
							}
						}
					}
				}
			}
		}
	}
}
MOTION
Frames: 8
Frame Time: 0.016667
0.889430 17.367580 -1.792710 5.303504 -21.252898 2.873428 -14.545150 10.975241 4.712812 -9.255938 -7.329199 -38.978505 -4.184354 2.336247 3.618067 -1.008614 1.892702 4.172935 0.242650 -0.159630 0.309580 18.991949 -11.759918 2.538597 -0.440488 1.487136 -8.891514 3.502479 -6.179648 24.940126 -0.380557 -4.796507 2.778416 0.017690 0.566490 0.351170 -5.569951 2.473408 -7.658530 24.059181 8.188838 14.750953 -1.638094 9.249445 16.224912 0.855076 -3.092247 -9.061342 -7.408958 0.802515 44.023756 -10.494910 0.831760 -1.556360 -2.359860 4.436434 1.006768 -25.999120 -3.230863 -1.769821 5.455024 -79.179010 -5.486311 -3.714644 3.457026 0.440760 0.368110 -0.124650 0.231450 0.164662 1.138305 7.545366 44.097758 14.873952 4.262867 -148.806976 54.422858 -139.348253 1.947951 -2.007779 -0.336750 0.310800 0.034170 -0.118020 
0.928210 17.319230 -1.808150 5.810004 -20.652363 2.597150 -14.547419 10.991931 4.731369 -9.447448 -7.434200 -38.645092 -4.612589 2.354369 3.376775 -1.036614 1.969130 4.128295 0.197420 -0.234420 0.278940 18.986615 -11.751547 2.518064 -0.841228 1.326248 -8.369515 3.545323 -6.219598 24.282749 -0.364220 -4.779741 2.756908 -0.016480 0.583620 0.385650 -5.550356 2.391114 -7.681213 24.126057 7.736475 15.326061 -2.402832 8.981692 16.072007 0.748671 -3.586780 -9.076476 -8.367400 1.066228 43.596873 -10.091270 0.314240 -1.914490 -2.635057 4.205961 0.926140 -24.737584 -2.426955 -2.058302 11.074937 -80.663436 -10.106664 -3.760484 3.397240 0.457200 0.374260 -0.141130 0.188900 0.597229 1.636164 7.621271 43.575624 14.844377 4.263907 -151.017043 54.422220 -142.846474 1.921562 -1.997248 -0.341270 0.296600 0.107320 -0.129540 
0.999150 17.222560 -1.833560 6.906907 -19.449438 2.487351 -14.555737 10.999293 4.818859 -10.582166 -7.952045 -38.670888 -4.209892 2.353574 4.412022 -0.996776 1.877277 4.146307 0.247190 -0.158120 0.247300 18.982239 -11.728160 2.440879 -1.687603 1.303015 -8.578775 3.215401 -6.127111 24.320092 -0.360777 -4.755002 2.754646 0.012940 0.557980 0.378890 -5.523350 2.249832 -7.687976 24.089476 7.143942 15.884692 -3.352017 8.565066 15.768292 0.202103 -4.919414 -9.029132 -11.189361 1.645272 42.670955 -8.325180 -1.065710 -2.069420 -2.968515 4.270044 0.762463 -24.061095 -2.002134 -2.837722 27.373288 -82.388558 -23.339630 -3.662522 3.230651 0.432820 0.337380 -0.137440 0.224680 1.812601 2.409997 7.739067 42.680044 13.859280 4.275947 -156.183676 53.902047 -151.088493 1.904144 -2.089328 -0.296800 0.260240 0.072020 -0.093210 
1.069600 17.118140 -1.860520 6.576193 -18.263880 2.664962 -14.489048 10.993766 4.832144 -10.556780 -8.113197 -39.579767 -2.785957 2.623690 9.209362 -0.980779 2.044292 4.096744 0.168060 -0.244160 0.145640 19.045712 -11.783373 2.477468 -0.831581 1.482965 -9.260401 2.152390 -5.919325 25.484218 -0.319437 -4.764528 2.777966 -0.028350 0.640670 0.355000 -5.697645 2.394467 -7.661228 26.660217 5.834997 16.908992 -6.152796 8.106853 14.194064 -0.271426 -6.384324 -8.880132 -13.902241 2.502469 41.405505 -6.451360 -2.188560 -1.273420 -3.117185 4.646700 0.289823 -23.650505 -0.849143 -4.321084 54.593481 -83.882975 -44.808362 -3.543944 2.258715 0.422150 0.358980 -0.198670 0.223580 2.576941 2.815039 7.874459 43.312097 12.784427 3.371828 -162.833768 57.109280 -163.980283 1.856518 -2.066637 -0.332240 0.300180 0.136770 -0.068590 
1.138310 17.031930 -1.895220 6.081188 -18.127880 2.938888 -14.425762 10.940981 4.858398 -9.372585 -8.282744 -41.042064 -1.529726 3.127056 16.516415 -0.932973 2.661028 3.855716 0.104080 -0.338460 0.108140 19.103742 -11.857490 2.541573 0.099925 2.274163 -11.088385 0.739175 -5.676104 28.497263 -0.306277 -4.889997 2.722883 -0.065680 0.684940 0.350100 -5.866357 2.720246 -7.658598 29.281505 5.045373 18.072353 -9.147029 8.338782 12.589429 -0.267656 -6.944180 -8.494541 -14.696237 2.571540 40.630604 -5.830830 -2.633350 -1.150340 -4.590957 5.055401 -0.180114 -22.500153 -1.863570 -2.503399 84.577035 -80.319762 -64.585933 -3.228247 -0.357289 0.438500 0.374060 -0.237790 0.192620 3.607035 2.678066 7.660714 44.094496 11.602334 1.487176 -172.302190 62.029460 179.623728 1.792689 -1.982553 -0.372740 0.323490 0.201040 -0.081480 
1.188690 16.964380 -1.932950 5.083246 -17.453348 2.784155 -14.406693 10.912840 4.859744 -6.623036 -8.240340 -42.311331 -1.919656 4.405124 25.492080 -0.771356 4.045544 3.316487 0.006530 -0.478460 0.065380 19.123365 -11.826795 2.667739 1.456564 3.387118 -12.756411 -0.269419 -5.636934 32.261811 -0.334828 -5.186102 2.606854 -0.137840 0.718970 0.371750 -5.901708 2.910712 -7.742703 32.012152 3.721224 20.208101 -12.424204 8.488726 10.653861 0.302888 -7.294017 -8.556363 -14.946322 2.172016 39.555149 -6.232250 -2.577350 -0.944300 -6.931050 5.839466 0.972527 -21.244209 -3.497979 2.534212 104.160664 -69.462187 -79.745849 -4.007132 0.657630 0.463190 0.397870 -0.266770 0.137330 4.730905 2.360472 6.906768 46.266731 10.587320 -2.376988 169.071421 69.416748 153.952153 1.711469 -1.670413 -0.405690 0.319720 0.289350 -0.105270 
1.203280 16.904070 -1.957000 4.790617 -16.471157 2.912267 -14.437204 10.912014 4.866292 -3.826842 -8.175307 -42.694288 -3.743099 6.384123 32.870091 -0.529560 5.651003 2.705897 -0.044960 -0.555280 0.020920 19.114661 -11.634274 2.770615 2.146220 4.803308 -15.268950 -0.989197 -5.672316 36.416758 -0.390000 -5.583265 2.447662 -0.185450 0.743190 0.409570 -5.838071 2.769617 -7.866253 32.246467 2.599449 21.956055 -14.130722 7.867629 7.184563 0.164715 -7.592852 -7.586904 -15.096418 2.297229 38.139555 -5.735040 -2.173580 -0.337850 -8.941463 7.424492 0.714925 -21.899320 -3.964090 3.588840 114.508643 -65.233967 -91.153573 -4.311151 1.856216 0.461700 0.420560 -0.290670 0.111640 6.572736 0.935151 5.454973 48.671718 9.990262 -5.777794 124.651786 72.754513 99.124059 2.093287 -0.059219 -0.401740 0.275440 0.340380 -0.108830 
1.218490 16.852510 -1.943990 4.429823 -15.259674 3.353552 -14.472425 10.981815 4.749312 -1.963548 -7.835287 -41.721260 -4.625184 7.972943 37.890741 -0.225780 6.758651 2.312390 -0.031190 -0.525550 0.016010 19.094624 -11.367819 2.957443 1.799851 6.661475 -18.481530 0.131656 -6.681764 41.665092 -0.554974 -6.263156 2.220134 -0.222250 0.709570 0.420940 -5.757061 2.489152 -7.976355 32.360659 1.912741 22.647319 -15.415446 7.442700 4.271854 0.119739 -7.277549 -7.314107 -14.533642 1.979105 37.830053 -4.864160 -1.698000 0.147680 -10.035555 8.810594 0.313748 -24.371519 -4.981270 3.800121 122.842091 -62.180163 -99.847488 -4.272179 2.534001 0.447460 0.394300 -0.254140 0.135930 7.517132 -0.722785 5.274053 52.965931 9.110518 0.690115 74.178737 76.937092 47.491605 2.680197 -1.070257 -0.340270 0.224480 0.296010 -0.083840 
